HIERARCHY
ROOT Hips
{
	OFFSET 0.000000 100.481300 0.000000
	CHANNELS 6 Xposition Yposition Zposition Xrotation Yrotation Zrotation 
	JOINT Spine
	{
		OFFSET -0.279200 12.230698 -2.892100
		CHANNELS 3 Xrotation Yrotation Zrotation
		JOINT Spine1
		{
			OFFSET -0.232667 10.192268 -1.242267
			CHANNELS 3 Xrotation Yrotation Zrotation
			JOINT Spine1_split
			{
				OFFSET -0.232667 10.192268 -1.242267
				CHANNELS 3 Xrotation Yrotation Zrotation
				JOINT Spine2
				{
					OFFSET -0.232667 10.192268 -1.242267
					CHANNELS 3 Xrotation Yrotation Zrotation
					JOINT Neck
					{
						OFFSET -0.418800 17.814194 8.416900
						CHANNELS 3 Xrotation Yrotation Zrotation
						JOINT Head
						{
							OFFSET 0.000000 7.031097 3.806800
							CHANNELS 3 Xrotation Yrotation Zrotation
							JOINT HeadTop_End
							{
								OFFSET 0.000000 24.646606 12.978600
								CHANNELS 3 Xrotation Yrotation Zrotation
								End Site
								{
									OFFSET 0.000000 0.000000 0.000000
								}
							}
						}
					}
					JOINT LeftShoulder
					{
						OFFSET 8.476499 7.247704 -3.868750
						CHANNELS 3 Xrotation Yrotation Zrotation
						JOINT LeftShoulder_split
						{
							OFFSET 8.476499 7.247704 -3.868750
							CHANNELS 3 Xrotation Yrotation Zrotation
							JOINT LeftArm
							{
								OFFSET 9.308998 -2.777710 0.208600
								CHANNELS 3 Xrotation Yrotation Zrotation
								JOINT LeftForeArm
								{
									OFFSET 29.972298 0.000000 0.000000
									CHANNELS 3 Xrotation Yrotation Zrotation
									JOINT LeftHand
									{
										OFFSET 26.026505 0.000000 0.000000
										CHANNELS 3 Xrotation Yrotation Zrotation
										JOINT LeftHandThumb1
										{
											OFFSET 12.240501 -7.147949 9.207150
											CHANNELS 3 Xrotation Yrotation Zrotation
											JOINT LeftHandThumb2
											{
												OFFSET 4.138618 -2.389435 2.389433
												CHANNELS 3 Xrotation Yrotation Zrotation
												JOINT LeftHandThumb3
												{
													OFFSET 2.726913 -1.574387 1.574386
													CHANNELS 3 Xrotation Yrotation Zrotation
													JOINT LeftHandThumb4
													{
														OFFSET 3.941010 -2.275345 2.275342
														CHANNELS 3 Xrotation Yrotation Zrotation
														End Site
														{
															OFFSET 0.000000 0.000000 0.000000
														}
													}
												}
											}
										}
										JOINT LeftHandIndex1
										{
											OFFSET 24.424698 -1.985611 5.953459
											CHANNELS 3 Xrotation Yrotation Zrotation
											JOINT LeftHandIndex2
											{
												OFFSET 6.426697 0.000000 0.000000
												CHANNELS 3 Xrotation Yrotation Zrotation
												JOINT LeftHandIndex3
												{
													OFFSET 5.337898 0.000000 0.000000
													CHANNELS 3 Xrotation Yrotation Zrotation
													JOINT LeftHandIndex4
													{
														OFFSET 4.409401 0.000000 0.000000
														CHANNELS 3 Xrotation Yrotation Zrotation
														End Site
														{
															OFFSET 0.000000 0.000000 0.000000
														}
													}
												}
											}
										}
										JOINT LeftHandMiddle1
										{
											OFFSET 23.810104 0.000000 0.000000
											CHANNELS 3 Xrotation Yrotation Zrotation
											JOINT LeftHandMiddle2
											{
												OFFSET 7.176498 0.000000 0.000000
												CHANNELS 3 Xrotation Yrotation Zrotation
												JOINT LeftHandMiddle3
												{
													OFFSET 6.774902 0.000000 0.000000
													CHANNELS 3 Xrotation Yrotation Zrotation
													JOINT LeftHandMiddle4
													{
														OFFSET 5.403328 0.000000 0.000000
														CHANNELS 3 Xrotation Yrotation Zrotation
														End Site
														{
															OFFSET 0.000000 0.000000 0.000000
														}
													}
												}
											}
										}
										JOINT LeftHandRing1
										{
											OFFSET 22.908401 -0.839279 -6.020567
											CHANNELS 3 Xrotation Yrotation Zrotation
											JOINT LeftHandRing2
											{
												OFFSET 6.337502 0.000000 0.000000
												CHANNELS 3 Xrotation Yrotation Zrotation
												JOINT LeftHandRing3
												{
													OFFSET 5.779297 0.000000 0.000000
													CHANNELS 3 Xrotation Yrotation Zrotation
													JOINT LeftHandRing4
													{
														OFFSET 4.965698 0.000000 0.000000
														CHANNELS 3 Xrotation Yrotation Zrotation
														End Site
														{
															OFFSET 0.000000 0.000000 0.000000
														}
													}
												}
											}
										}
										JOINT LeftHandPinky1
										{
											OFFSET 20.037003 -1.530319 -10.950146
											CHANNELS 3 Xrotation Yrotation Zrotation
											JOINT LeftHandPinky2
											{
												OFFSET 5.254700 0.000000 0.000000
												CHANNELS 3 Xrotation Yrotation Zrotation
												JOINT LeftHandPinky3
												{
													OFFSET 4.810204 0.000000 0.000000
													CHANNELS 3 Xrotation Yrotation Zrotation
													JOINT LeftHandPinky4
													{
														OFFSET 3.647202 0.000000 0.000000
														CHANNELS 3 Xrotation Yrotation Zrotation
														End Site
														{
															OFFSET 0.000000 0.000000 0.000000
														}
													}
												}
											}
										}
									}
								}
							}
						}
					}
					JOINT RightShoulder
					{
						OFFSET -7.570500 7.247704 -3.868750
						CHANNELS 3 Xrotation Yrotation Zrotation
						JOINT RightShoulder_split
						{
							OFFSET -7.570500 7.247704 -3.868750
							CHANNELS 3 Xrotation Yrotation Zrotation
							JOINT RightArm
							{
								OFFSET -9.308998 -2.777710 0.208500
								CHANNELS 3 Xrotation Yrotation Zrotation
								JOINT RightForeArm
								{
									OFFSET -29.972300 0.000000 0.000000
									CHANNELS 3 Xrotation Yrotation Zrotation
									JOINT RightHand
									{
										OFFSET -26.026505 0.000000 0.000000
										CHANNELS 3 Xrotation Yrotation Zrotation
										JOINT RightHandThumb1
										{
											OFFSET -12.240601 -7.148026 9.207092
											CHANNELS 3 Xrotation Yrotation Zrotation
											JOINT RightHandThumb2
											{
												OFFSET -4.138618 -2.389435 2.389433
												CHANNELS 3 Xrotation Yrotation Zrotation
												JOINT RightHandThumb3
												{
													OFFSET -2.726974 -1.574417 1.574421
													CHANNELS 3 Xrotation Yrotation Zrotation
													JOINT RightHandThumb4
													{
														OFFSET -3.941010 -2.275345 2.275343
														CHANNELS 3 Xrotation Yrotation Zrotation
														End Site
														{
															OFFSET 0.000000 0.000000 0.000000
														}
													}
												}
											}
										}
										JOINT RightHandIndex1
										{
											OFFSET -24.424698 -1.985657 5.953444
											CHANNELS 3 Xrotation Yrotation Zrotation
											JOINT RightHandIndex2
											{
												OFFSET -6.426697 0.000000 0.000000
												CHANNELS 3 Xrotation Yrotation Zrotation
												JOINT RightHandIndex3
												{
													OFFSET -5.337898 0.000000 0.000000
													CHANNELS 3 Xrotation Yrotation Zrotation
													JOINT RightHandIndex4
													{
														OFFSET -4.409401 0.000000 0.000000
														CHANNELS 3 Xrotation Yrotation Zrotation
														End Site
														{
															OFFSET 0.000000 0.000000 0.000000
														}
													}
												}
											}
										}
										JOINT RightHandMiddle1
										{
											OFFSET -23.810097 0.000000 0.000000
											CHANNELS 3 Xrotation Yrotation Zrotation
											JOINT RightHandMiddle2
											{
												OFFSET -7.176498 0.000000 0.000000
												CHANNELS 3 Xrotation Yrotation Zrotation
												JOINT RightHandMiddle3
												{
													OFFSET -6.774902 0.000000 0.000000
													CHANNELS 3 Xrotation Yrotation Zrotation
													JOINT RightHandMiddle4
													{
														OFFSET -5.403328 0.000000 0.000000
														CHANNELS 3 Xrotation Yrotation Zrotation
														End Site
														{
															OFFSET 0.000000 0.000000 0.000000
														}
													}
												}
											}
										}
										JOINT RightHandRing1
										{
											OFFSET -22.908302 -0.839325 -6.020576
											CHANNELS 3 Xrotation Yrotation Zrotation
											JOINT RightHandRing2
											{
												OFFSET -6.337502 0.000000 0.000000
												CHANNELS 3 Xrotation Yrotation Zrotation
												JOINT RightHandRing3
												{
													OFFSET -5.779297 0.000000 0.000000
													CHANNELS 3 Xrotation Yrotation Zrotation
													JOINT RightHandRing4
													{
														OFFSET -4.965698 0.000000 0.000000
														CHANNELS 3 Xrotation Yrotation Zrotation
														End Site
														{
															OFFSET 0.000000 0.000000 0.000000
														}
													}
												}
											}
										}
										JOINT RightHandPinky1
										{
											OFFSET -20.037003 -1.530334 -10.950259
											CHANNELS 3 Xrotation Yrotation Zrotation
											JOINT RightHandPinky2
											{
												OFFSET -5.254700 0.000000 0.000000
												CHANNELS 3 Xrotation Yrotation Zrotation
												JOINT RightHandPinky3
												{
													OFFSET -4.810204 0.000000 0.000000
													CHANNELS 3 Xrotation Yrotation Zrotation
													JOINT RightHandPinky4
													{
														OFFSET -3.647202 0.000000 0.000000
														CHANNELS 3 Xrotation Yrotation Zrotation
														End Site
														{
															OFFSET 0.000000 0.000000 0.000000
														}
													}
												}
											}
										}
									}
								}
							}
						}
					}
				}
			}
		}
	}
	JOINT LeftUpLeg
	{
		OFFSET 15.427100 -6.655098 0.678600
		CHANNELS 3 Xrotation Yrotation Zrotation
		JOINT LeftLeg
		{
			OFFSET 4.081073 -39.591068 13.024000
			CHANNELS 3 Xrotation Yrotation Zrotation
			JOINT LeftFoot
			{
				OFFSET -4.081074 -37.707932 -15.979700
				CHANNELS 3 Xrotation Yrotation Zrotation
				JOINT LeftToeBase
				{
					OFFSET 5.346399 -15.068900 20.645000
					CHANNELS 3 Xrotation Yrotation Zrotation
					JOINT LeftToe_End
					{
						OFFSET 2.754700 0.931300 11.300900
						CHANNELS 3 Xrotation Yrotation Zrotation
						End Site
						{
							OFFSET 0.000000 0.000000 0.000000
						}
					}
				}
			}
		}
	}
	JOINT RightUpLeg
	{
		OFFSET -15.569500 -6.655098 0.678600
		CHANNELS 3 Xrotation Yrotation Zrotation
		JOINT RightLeg
		{
			OFFSET -4.081825 -39.591045 13.023800
			CHANNELS 3 Xrotation Yrotation Zrotation
			JOINT RightFoot
			{
				OFFSET 4.081824 -37.707954 -15.979600
				CHANNELS 3 Xrotation Yrotation Zrotation
				JOINT RightToeBase
				{
					OFFSET -5.346400 -15.068900 20.645000
					CHANNELS 3 Xrotation Yrotation Zrotation
					JOINT RightToe_End
					{
						OFFSET -2.754700 0.931300 11.300900
						CHANNELS 3 Xrotation Yrotation Zrotation
						End Site
						{
							OFFSET 0.000000 0.000000 0.000000
						}
					}
				}
			}
		}
	}
}
MOTION
Frames: 5
Frame Time: 0.016667
0.734666 91.042023 -1.118878 1.939793 1.907598 -2.831690 6.226019 -0.962044 2.698042 2.498163 -2.419468 1.232352 0.000000 0.000000 0.000000 2.471488 -2.375263 1.342052 -0.476782 2.129173 -0.237603 -3.192702 4.531153 -1.881902 0.000000 -0.000000 0.000000 0.352373 -9.169220 -14.380746 0.000000 0.000000 0.000000 9.011958 -24.442281 -57.554596 -0.000004 -11.061375 0.000012 3.271988 3.566769 -10.594339 5.264577 3.579080 10.848970 6.474978 8.367017 6.368047 2.011397 -7.323823 21.364137 0.000000 -0.000001 -0.000004 -2.233901 -4.155359 -17.702588 0.202687 1.529119 -15.099450 0.202670 1.529138 -15.099433 0.000001 0.000001 0.000003 0.434915 4.486718 -26.650215 0.126203 1.210700 -11.901607 0.171713 1.409432 -13.892101 0.000002 0.000002 0.000002 1.633483 6.797660 -27.448951 0.330727 1.942279 -19.325015 0.401435 2.133128 -21.313482 -0.000000 -0.000003 -0.000001 3.038393 8.521930 -34.072727 0.278519 1.786571 -17.720738 0.277950 1.784753 -17.702182 -0.000004 -0.000001 0.000001 0.552467 4.135210 15.717230 0.000000 0.000000 0.000000 3.061867 28.096173 49.279839 -0.000005 23.795800 0.000028 -1.370125 0.937408 5.904095 12.604598 -3.092098 -3.819386 4.958757 -19.016360 -8.084326 -16.136266 -1.568452 -12.126153 0.000002 -0.000001 -0.000001 -2.604819 4.000966 20.793321 0.395174 -1.879130 23.750087 0.077981 -0.849552 10.488006 -0.000002 -0.000002 -0.000003 -1.114238 -0.327547 22.216061 0.858154 -2.695809 35.310094 0.296093 -1.635657 20.519982 0.000001 -0.000002 0.000000 -0.268991 -2.585347 24.354283 1.505973 -3.430899 47.387456 0.374058 -1.830423 23.097601 0.000000 -0.000001 -0.000000 -0.053542 -3.321020 29.341810 0.569533 -2.233603 28.606367 0.178104 -1.276918 15.880009 -0.000001 0.000000 0.000001 -27.973636 8.318380 6.374608 50.809828 -3.331966 -0.603282 5.475592 -0.810597 -1.117132 -25.411487 -1.233918 3.977286 0.000000 0.000000 -0.000000 -16.869799 -8.271159 4.600424 27.647487 2.450405 -4.094448 -13.234753 -0.175425 -0.351909 -4.971783 0.000001 -0.000000 0.000000 -0.000000 -0.000000 
0.737298 91.041672 -1.116237 1.939469 1.908001 -2.831116 6.226380 -0.960516 2.697656 2.498234 -2.417830 1.232011 0.000000 0.000000 0.000000 2.471639 -2.373642 1.341658 -0.476554 2.128852 -0.237604 -3.192826 4.526923 -1.879946 -0.000000 -0.000000 -0.000000 0.352425 -9.169999 -14.382083 0.000000 0.000000 0.000000 9.010349 -24.438424 -57.554391 0.000007 -11.063230 -0.000013 3.257407 3.554006 -10.593106 5.263826 3.578386 10.848682 6.474960 8.367290 6.367686 2.010753 -7.323454 21.363490 0.000001 0.000001 0.000001 -2.233608 -4.154910 -17.701583 0.202654 1.529027 -15.098405 0.202644 1.529026 -15.098418 0.000000 -0.000003 0.000001 0.434878 4.486592 -26.648617 0.126186 1.210638 -11.900799 0.171703 1.409333 -13.891167 0.000001 0.000003 -0.000002 1.633289 6.797406 -27.447281 0.330673 1.942145 -19.323703 0.401378 2.132996 -21.312021 0.000000 -0.000004 -0.000000 3.038000 8.521595 -34.070572 0.278484 1.786445 -17.719532 0.277908 1.784642 -17.700961 -0.000003 -0.000002 -0.000001 0.552000 4.136469 15.717544 0.000000 0.000000 0.000000 3.065238 28.095288 49.277899 -0.000000 23.806297 -0.000008 -1.366991 0.936650 5.900775 12.604083 -3.090568 -3.818895 4.958347 -19.014777 -8.084012 -16.136540 -1.566818 -12.125780 -0.000001 -0.000002 -0.000001 -2.604893 4.001881 20.791729 0.395117 -1.878998 23.748356 0.077952 -0.849424 10.486293 -0.000003 -0.000002 -0.000001 -1.114366 -0.326927 22.214453 0.858069 -2.695689 35.308410 0.296043 -1.635527 20.518286 0.000000 0.000001 0.000002 -0.268921 -2.585363 24.352592 1.505876 -3.430814 47.385762 0.374005 -1.830285 23.095928 0.000000 -0.000001 -0.000001 -0.052963 -3.321965 29.340085 0.569480 -2.233483 28.604680 0.178062 -1.276772 15.878335 -0.000001 -0.000001 0.000002 -27.973969 8.316652 6.377566 50.808620 -3.330610 -0.603130 5.473341 -0.809228 -1.119236 -25.407428 -1.232671 3.973996 -0.000000 0.000000 0.000000 -16.868476 -8.270643 4.597522 27.649036 2.450294 -4.094051 -13.237928 -0.174574 -0.349938 -4.971332 -0.000000 0.000001 -0.000000 -0.000000 -0.000000 
2.029259 90.854385 0.155301 1.781097 2.103820 -2.535320 6.407975 -0.211088 2.494946 2.528581 -1.613456 1.064342 0.000000 0.000000 0.000000 2.545424 -1.578220 1.147881 -0.365330 1.971524 -0.237603 -3.183211 2.474958 -1.431030 0.000000 -0.000000 -0.000000 0.372029 -9.555644 -15.041970 0.000000 0.000000 0.000000 8.216912 -22.540954 -57.446713 0.000003 -11.975302 0.000001 3.731464 3.720166 -10.301915 4.891370 3.235530 10.703799 6.454772 8.503254 6.197283 1.690552 -7.139152 21.054519 -0.000002 -0.000001 -0.000000 -2.093296 -3.936374 -17.208609 0.189385 1.479048 -14.593608 0.189397 1.479060 -14.593631 0.000003 0.000001 -0.000002 0.414358 4.427926 -25.861091 0.117932 1.170725 -11.503020 0.160457 1.363115 -13.426783 -0.000000 -0.000000 0.000005 1.539059 6.674527 -26.628310 0.309131 1.879600 -18.677446 0.375275 2.064868 -20.599154 0.000001 -0.000003 -0.000001 2.853480 8.358689 -33.022855 0.260311 1.728585 -17.127007 0.259786 1.726823 -17.109083 0.000002 -0.000000 0.000002 0.321547 4.755069 15.877632 0.000000 0.000000 0.000000 5.691788 26.887823 47.980720 0.000001 30.206604 -0.000004 0.161396 0.516863 4.276209 12.348110 -2.339928 -3.584511 4.747166 -18.240206 -7.943235 -16.268368 -0.771216 -11.945361 -0.000003 0.000000 -0.000002 -2.640446 4.449055 20.018084 0.367979 -1.816109 22.906670 0.066209 -0.783322 9.662013 -0.000000 0.000000 -0.000001 -1.172901 -0.021089 21.413902 0.819465 -2.640401 34.478973 0.272960 -1.572496 19.693780 0.000000 -0.000003 0.000001 -0.236780 -2.596233 23.523566 1.456688 -3.384980 46.558193 0.348108 -1.768358 22.271206 -0.000001 -0.000001 -0.000001 0.223285 -3.787749 28.484141 0.537721 -2.174293 27.779085 0.160171 -1.212103 15.054034 0.000001 -0.000002 -0.000003 -28.165859 7.477442 7.821633 50.247161 -2.659880 -0.525881 4.371911 -0.132829 -2.159817 -23.014037 -0.638964 2.320633 0.000000 0.000001 -0.000000 -16.101355 -8.008069 3.162392 28.188414 2.409370 -3.871248 -14.399709 0.234438 0.611358 -4.747457 -0.000001 -0.000001 0.000000 0.000000 -0.000000 
3.410052 90.736870 1.451123 1.665025 2.265183 -2.177464 6.592701 0.517899 2.230769 2.561887 -0.802064 0.887917 0.000000 0.000000 0.000000 2.621666 -0.776054 0.944272 -0.268467 1.815119 -0.237641 -3.233342 0.353598 -1.007019 0.000000 0.000000 0.000000 0.371285 -9.985387 -15.641495 0.000000 0.000000 0.000000 7.405635 -20.584764 -57.407173 0.000002 -12.913629 0.000002 4.214060 3.996358 -10.057983 4.508207 2.883753 10.550108 6.434242 8.643680 6.022198 1.361587 -6.945983 20.738876 -0.000003 -0.000002 -0.000004 -1.948698 -3.694172 -16.699966 0.176231 1.427533 -14.074311 0.176228 1.427540 -14.074349 -0.000001 -0.000003 -0.000001 0.393838 4.367408 -25.050969 0.109704 1.129614 -11.093779 0.149287 1.315481 -12.949047 -0.000002 0.000001 0.000002 1.442359 6.540933 -25.786623 0.287705 1.815030 -18.012631 0.349306 1.994440 -19.865860 -0.000000 0.000001 -0.000003 2.655550 8.164939 -31.946830 0.242259 1.668851 -16.517498 0.241739 1.667142 -16.500176 0.000001 -0.000000 0.000003 0.086861 5.408577 15.971887 0.000000 0.000000 0.000000 7.876288 25.924891 46.850060 0.000009 35.801133 0.000001 1.774325 0.205084 2.579184 12.069523 -1.522684 -3.323964 4.515113 -17.396345 -7.788257 -16.417184 0.094994 -11.746325 -0.000003 -0.000000 -0.000002 -2.666693 4.938888 19.174986 0.339464 -1.747105 21.989239 0.054487 -0.711085 8.763537 0.000001 -0.000001 -0.000000 -1.228158 0.314523 20.541871 0.778304 -2.579495 33.574963 0.248838 -1.503445 18.795093 0.000001 -0.000002 -0.000001 -0.203301 -2.609194 22.619788 1.403825 -3.334208 45.656246 0.320901 -1.700442 21.372301 0.000000 0.000001 -0.000001 0.507730 -4.304785 27.552430 0.504090 -2.109263 26.879233 0.141708 -1.141283 14.155588 -0.000001 -0.000001 0.000000 -27.997007 6.644694 9.436739 48.935444 -1.536482 -0.442805 3.358510 0.607696 -3.736031 -20.682612 -0.156443 0.647588 -0.000000 0.000001 -0.000000 -15.254787 -7.736912 1.572133 28.465249 2.399445 -3.594170 -15.407162 0.692571 1.631021 -4.497867 0.000000 0.000001 0.000000 -0.000000 -0.000000 
4.840093 90.693733 2.775110 1.594320 2.396101 -1.779915 6.767298 1.221288 1.910803 2.597818 0.014281 0.707129 0.000000 0.000000 0.000000 2.699917 0.030978 0.735977 -0.187442 1.661603 -0.240756 -3.336267 -1.805328 -0.614703 0.000000 -0.000000 0.000000 0.351721 -10.465480 -16.222261 0.000000 0.000000 0.000000 6.640032 -18.590120 -57.376000 0.000008 -13.844611 0.000002 4.658377 4.339864 -9.860109 4.116237 2.524976 10.388008 6.413487 8.787838 5.843300 1.025586 -6.744673 20.418384 -0.000000 -0.000002 -0.000002 -1.802375 -3.432886 -16.178830 0.163241 1.374721 -13.543161 0.163245 1.374701 -13.543206 -0.000001 -0.000002 -0.000003 0.373484 4.305308 -24.222385 0.101614 1.087519 -10.675183 0.138286 1.266652 -12.460405 -0.000001 -0.000002 0.000003 1.344715 6.398370 -24.926453 0.266556 1.748684 -17.332659 0.323668 1.922061 -19.115847 0.000002 -0.000000 0.000002 2.450016 7.945296 -30.848194 0.224427 1.607551 -15.894041 0.223963 1.605899 -15.877400 -0.000000 -0.000002 -0.000003 -0.150901 6.103866 16.004805 0.000000 0.000000 0.000000 9.788273 25.097638 45.794492 0.000006 40.905095 -0.000004 3.534525 -0.117922 0.769682 11.772853 -0.652498 -3.040409 4.265575 -16.497292 -7.621282 -16.581785 1.017217 -11.531360 0.000002 0.000002 -0.000003 -2.680261 5.463554 18.276210 0.310276 -1.673035 21.011253 0.043243 -0.633880 7.805665 0.000001 -0.000003 -0.000003 -1.277222 0.674723 19.612904 0.735487 -2.513855 32.611343 0.224315 -1.429404 17.837109 0.000002 -0.000004 0.000001 -0.169434 -2.624205 21.656191 1.348376 -3.279187 44.694791 0.293072 -1.627573 20.414095 -0.000001 0.000002 0.000000 0.791557 -4.866228 26.560400 0.469382 -2.039354 25.920001 0.123274 -1.065508 13.197829 0.000001 -0.000002 -0.000002 -27.558029 5.900537 11.144534 46.946742 -0.136569 -0.347338 2.482883 1.420256 -5.648734 -17.924956 0.157191 -0.795340 -0.000000 0.000001 -0.000000 -14.316776 -7.494210 -0.033411 28.457114 2.767880 -3.269807 -16.231439 0.851425 2.498142 -4.268032 -0.000001 -0.000000 -0.000000 0.000000 0.000000 
